<svg version="1.2" baseProfile="tiny-ps" xmlns="http://www.w3.org/2000/svg" width="64" height="64" viewBox="0 0 64 64" xml:space="preserve">
<title>Benjamin</title>
<path fill="#000000" opacity="1.000000" stroke="none" 
	d="
M1.000000,24.000080 
	C1.000000,16.000103 1.000000,8.500104 1.000000,1.000078 
	C22.333298,1.000052 43.666595,1.000052 64.999924,1.000026 
	C64.999947,22.333296 64.999947,43.666592 64.999969,64.999908 
	C43.666706,64.999939 22.333410,64.999939 1.000058,64.999969 
	C1.000000,51.500019 1.000000,38.000038 1.000000,24.000080 
M20.936281,42.956249 
	C20.936281,42.956249 20.913815,42.901867 20.329723,43.273960 
	C20.270538,44.181484 20.211353,45.089012 20.000174,46.701977 
	C19.646580,48.058788 19.292988,49.415596 18.228678,50.797070 
	C17.521919,50.862450 16.815163,50.927834 15.914672,50.370770 
	C15.309552,49.524727 14.704432,48.678684 14.099313,47.832642 
	C13.866246,47.998543 13.633181,48.164444 13.400114,48.330349 
	C13.649226,48.879017 13.898338,49.427689 14.034466,50.814404 
	C14.040909,52.708866 13.993761,54.607571 14.142857,56.490742 
	C14.156639,56.664814 15.418968,56.740040 16.828760,57.012142 
	C18.834024,57.685505 21.502474,59.668911 20.884783,54.323597 
	C20.629324,54.015198 20.373865,53.706799 20.730711,53.344551 
	C20.754850,52.944042 20.778988,52.543530 21.075693,51.491707 
	C21.326630,49.656139 21.577566,47.820572 21.993620,45.496395 
	C22.054649,45.335674 22.115677,45.174953 22.711409,44.749794 
	C22.738043,44.172325 22.764677,43.594860 22.943819,42.297237 
	C22.984350,41.563499 23.024881,40.829762 23.718782,39.655384 
	C23.768553,38.093552 23.818321,36.531715 23.969183,34.265892 
	C23.589493,33.275082 23.209803,32.284275 22.830112,31.293465 
	C22.382660,31.382639 21.935205,31.471815 21.487753,31.560989 
	C21.418573,32.752018 21.349394,33.943043 21.156981,35.733727 
	C21.170633,36.137398 21.184288,36.541065 21.071444,37.790077 
	C21.100174,39.210976 21.128904,40.631870 21.010763,42.490120 
	C21.010763,42.490120 20.882065,42.933578 20.936281,42.956249 
M32.868210,3.537093 
	C32.556393,3.682949 32.244579,3.828806 31.330328,3.783133 
	C30.567902,3.581483 29.805475,3.379832 28.230160,3.055098 
	C27.136955,3.086037 26.043751,3.116976 24.272942,3.035252 
	C23.481636,3.324910 22.690331,3.614569 21.258518,4.011364 
	C20.912968,4.452010 20.567419,4.892656 20.221869,5.333302 
	C20.803953,5.501464 21.386040,5.669626 22.771061,5.711740 
	C26.496426,5.751386 30.221790,5.791032 34.677357,5.993289 
	C41.986015,8.506405 46.769871,13.470280 49.170300,21.177692 
	C50.014957,19.744894 50.412907,18.501783 50.122704,17.448225 
	C47.740643,8.800404 40.663261,6.015836 33.002079,3.998558 
	C33.002079,3.998558 33.010975,3.983844 32.868210,3.537093 
M8.988210,20.396633 
	C8.988210,17.843906 8.988210,15.291180 8.988210,12.337630 
	C4.876750,15.838852 5.096697,23.524504 8.999237,28.417236 
	C8.999237,25.988869 8.999237,23.634369 8.988210,20.396633 
z"/>
<path fill="#334BB4" opacity="1.000000" stroke="none" 
	d="
M33.020184,3.991999 
	C40.663261,6.015836 47.740643,8.800404 50.122704,17.448225 
	C50.412907,18.501783 50.014957,19.744894 49.170300,21.177692 
	C46.769871,13.470280 41.986015,8.506405 34.188454,5.685964 
	C33.473095,4.916425 33.246639,4.454212 33.020184,3.991999 
z"/>
<path fill="#4661D3" opacity="1.000000" stroke="none" 
	d="
M8.993723,20.838251 
	C8.999237,23.634369 8.999237,25.988869 8.999237,28.417236 
	C5.096697,23.524504 4.876750,15.838852 8.988210,12.337630 
	C8.988210,15.291180 8.988210,17.843906 8.993723,20.838251 
z"/>
<path fill="#3D4C9A" opacity="1.000000" stroke="none" 
	d="
M16.108404,50.993214 
	C16.815163,50.927834 17.521919,50.862450 18.618107,51.006676 
	C19.007534,51.216286 19.080389,51.658886 18.950386,51.970100 
	C17.914106,53.807926 17.007830,55.334545 16.101555,56.861164 
	C15.418968,56.740040 14.156639,56.664814 14.142857,56.490742 
	C13.993761,54.607571 14.040909,52.708866 14.338095,50.518955 
	C15.130616,50.480076 15.619510,50.736645 16.108404,50.993214 
z"/>
<path fill="#3F58BA" opacity="1.000000" stroke="none" 
	d="
M33.011131,3.995278 
	C33.246639,4.454212 33.473095,4.916425 33.823353,5.604659 
	C30.221790,5.791032 26.496426,5.751386 22.368393,5.452039 
	C21.943493,4.762967 21.921259,4.333597 21.899025,3.904227 
	C22.690331,3.614569 23.481636,3.324910 24.882635,3.246077 
	C26.675901,3.363995 27.859476,3.271088 29.043049,3.178182 
	C29.805475,3.379832 30.567902,3.581483 31.901085,3.888033 
	C32.651554,3.989904 32.831264,3.986874 33.010975,3.983844 
	C33.010975,3.983844 33.002079,3.998558 33.011131,3.995278 
z"/>
<path fill="#415BBD" opacity="1.000000" stroke="none" 
	d="
M16.465157,56.936653 
	C17.007830,55.334545 17.914106,53.807926 19.376541,52.108517 
	C20.222843,52.004822 20.512985,52.073921 20.803127,52.143021 
	C20.778988,52.543530 20.754850,52.944042 20.532822,53.641426 
	C20.491074,54.292229 20.647217,54.646156 20.803360,55.000080 
	C21.502474,59.668911 18.834024,57.685505 16.465157,56.936653 
z"/>
<path fill="#324EB8" opacity="1.000000" stroke="none" 
	d="
M20.939411,51.817364 
	C20.512985,52.073921 20.222843,52.004822 19.506546,51.797302 
	C19.080389,51.658886 19.007534,51.216286 18.973465,50.994347 
	C19.292988,49.415596 19.646580,48.058788 20.355555,46.349564 
	C21.083458,45.993099 21.455980,45.989052 21.828503,45.985004 
	C21.577566,47.820572 21.326630,49.656139 20.939411,51.817364 
z"/>
<path fill="#2D47B6" opacity="1.000000" stroke="none" 
	d="
M23.065413,40.096024 
	C23.024881,40.829762 22.984350,41.563499 22.654453,42.650429 
	C22.365088,43.003620 21.938959,42.987602 21.819292,42.823368 
	C21.529472,42.447617 21.348810,42.245495 21.157637,42.052769 
	C21.128904,40.631870 21.100174,39.210976 21.358433,37.465027 
	C22.118752,38.125324 22.592081,39.110676 23.065413,40.096024 
z"/>
<path fill="#4F61C2" opacity="1.000000" stroke="none" 
	d="
M23.392097,39.875702 
	C22.592081,39.110676 22.118752,38.125324 21.421680,37.042358 
	C21.184288,36.541065 21.170633,36.137398 21.542150,35.418903 
	C22.574244,35.059349 23.221169,35.014618 23.868092,34.969883 
	C23.818321,36.531715 23.768553,38.093552 23.392097,39.875702 
z"/>
<path fill="#3851B7" opacity="1.000000" stroke="none" 
	d="
M23.918636,34.617889 
	C23.221169,35.014618 22.574244,35.059349 21.603767,35.119076 
	C21.349394,33.943043 21.418573,32.752018 21.487753,31.560989 
	C21.935205,31.471815 22.382660,31.382639 22.830112,31.293465 
	C23.209803,32.284275 23.589493,33.275082 23.918636,34.617889 
z"/>
<path fill="#3952B7" opacity="1.000000" stroke="none" 
	d="
M16.011538,50.681992 
	C15.619510,50.736645 15.130616,50.480076 14.394587,50.099930 
	C13.898338,49.427689 13.649226,48.879017 13.400114,48.330349 
	C13.633181,48.164444 13.866246,47.998543 14.099313,47.832642 
	C14.704432,48.678684 15.309552,49.524727 16.011538,50.681992 
z"/>
<path fill="#405AC0" opacity="1.000000" stroke="none" 
	d="
M21.911060,45.740700 
	C21.455980,45.989052 21.083458,45.993099 20.431553,45.996841 
	C20.211353,45.089012 20.270538,44.181484 20.738874,43.375229 
	C21.490919,43.989075 21.833813,44.501656 22.176706,45.014233 
	C22.115677,45.174953 22.054649,45.335674 21.911060,45.740700 
z"/>
<path fill="#324EB8" opacity="1.000000" stroke="none" 
	d="
M22.444057,44.882011 
	C21.833813,44.501656 21.490919,43.989075 21.030920,43.189182 
	C20.913815,42.901867 20.936281,42.956249 21.173435,42.958046 
	C21.586716,42.969093 21.762838,42.978348 21.938959,42.987602 
	C21.938959,42.987602 22.365088,43.003620 22.578201,43.010506 
	C22.764677,43.594860 22.738043,44.172325 22.444057,44.882011 
z"/>
<path fill="#2142B2" opacity="1.000000" stroke="none" 
	d="
M21.578772,3.957796 
	C21.921259,4.333597 21.943493,4.762967 21.966927,5.515062 
	C21.386040,5.669626 20.803953,5.501464 20.221869,5.333302 
	C20.567419,4.892656 20.912968,4.452010 21.578772,3.957796 
z"/>
<path fill="#1B3DB6" opacity="1.000000" stroke="none" 
	d="
M28.636604,3.116640 
	C27.859476,3.271088 26.675901,3.363995 25.221437,3.302408 
	C26.043751,3.116976 27.136955,3.086037 28.636604,3.116640 
z"/>
<path fill="#405AC0" opacity="1.000000" stroke="none" 
	d="
M21.819292,42.823368 
	C21.762838,42.978348 21.586716,42.969093 21.146328,42.946709 
	C20.882065,42.933578 21.010763,42.490120 21.084200,42.271446 
	C21.348810,42.245495 21.529472,42.447617 21.819292,42.823368 
z"/>
<path fill="#334BB4" opacity="1.000000" stroke="none" 
	d="
M32.939590,3.760468 
	C32.831264,3.986874 32.651554,3.989904 32.202301,3.983798 
	C32.244579,3.828806 32.556393,3.682949 32.939590,3.760468 
z"/>
<path fill="#324EB8" opacity="1.000000" stroke="none" 
	d="
M20.844070,54.661839 
	C20.647217,54.646156 20.491074,54.292229 20.226669,53.668350 
	C20.373865,53.706799 20.629324,54.015198 20.844070,54.661839 
z"/>
</svg>
